<?xml version="1.0" standalone="no"?><!DOCTYPE svg PUBLIC "-//W3C//DTD SVG 1.1//EN" "http://www.w3.org/Graphics/SVG/1.1/DTD/svg11.dtd"><svg width="32" height="32" viewBox="0 0 32 32" version="1.1" xmlns="http://www.w3.org/2000/svg" xmlns:xlink="http://www.w3.org/1999/xlink"><defs><style type="text/css"><![CDATA[
@font-face { font-family: ifont; src: url("http://at.alicdn.com/t/font_1442373896_4754455.eot?#iefix") format("embedded-opentype"), url("http://at.alicdn.com/t/font_1442373896_4754455.woff") format("woff"), url("http://at.alicdn.com/t/font_1442373896_4754455.ttf") format("truetype"), url("http://at.alicdn.com/t/font_1442373896_4754455.svg#ifont") format("svg"); }

]]></style></defs><g class="transform-group"><g transform="scale(0.03125, 0.03125)"><path d="M904.492674 680.787194l-99.038644-82.509179c52.420907-147.888212 7.556093-316.351018-114.019847-418.364413-68.411089-57.479109-155.172105-89.188298-244.63465-89.188298-112.940259 0-219.330334 49.655933-291.725154 136.013767C20.005125 387.580293 41.054533 628.436896 201.894731 763.371074c68.414159 57.344033 155.307182 88.920192 244.161882 88.920192 66.321498 0 130.682341-16.933671 187.694823-49.114604l98.701976 82.84994c24.085558 20.237927 54.512544 31.370475 85.887113 31.370475 39.801495 0 77.248362-17.476023 102.615099-47.833425C968.584388 813.025984 960.897312 728.424144 904.492674 680.787194M229.017462 490.669182c-5.059226-58.290591 12.681834-115.03292 50.125631-159.629627 41.761126-49.585325 102.887298-78.257342 167.655418-78.257342 51.138704 0 101.065813 18.285458 140.331096 51.205219 44.801369 37.714973 72.192206 90.473571 77.251432 148.360979 5.331425 58.290591-12.615319 115.02985-50.128701 159.625534-41.831734 49.65491-102.817714 78.261435-167.721933 78.261435-51.142797 0-101.065813-18.21485-140.331096-51.138704C261.402033 601.582271 234.011196 548.823674 229.017462 490.669182" fill="#ffffff"></path></g></g></svg>